<svg xmlns="http://www.w3.org/2000/svg" version="1.1" xmlns:xlink="http://www.w3.org/1999/xlink" xmlns:svgjs="http://svgjs.dev/svgjs" width="1500" height="321" viewBox="0 0 1500 321"><g transform="matrix(1,0,0,1,-0.9090909090909918,-0.6668663891434221)"><svg viewBox="0 0 396 85" data-background-color="#ffffff" preserveAspectRatio="xMidYMid meet" height="321" width="1500" xmlns="http://www.w3.org/2000/svg" xmlns:xlink="http://www.w3.org/1999/xlink"><g id="tight-bounds" transform="matrix(1,0,0,1,0.2400000000000091,0.17658455787287153)"><svg viewBox="0 0 395.52 84.64683088425427" height="84.64683088425427" width="395.52"><g><svg viewBox="0 0 602.7525690747887 128.9975090501705" height="84.64683088425427" width="395.52"><g transform="matrix(1,0,0,1,207.2325690747887,17.828165143692168)"><svg viewBox="0 0 395.52 93.34117876278616" height="93.34117876278616" width="395.52"><g id="textblocktransform"><svg viewBox="0 0 395.52 93.34117876278616" height="93.34117876278616" width="395.52" id="textblock"><g><svg viewBox="0 0 395.52 93.34117876278616" height="93.34117876278616" width="395.52"><g transform="matrix(1,0,0,1,0,0)"><svg width="395.52" viewBox="3.25 -37.5 205.28 48.45" height="93.34117876278616" data-palette-color="#152232"><path d="M17.55-14.15L17.55-17.7 10.5-17.7 10.5-3.4 13.75-3.4 13.75 0 3.25 0 3.25-3.4 6.4-3.4 6.4-34.1 3.25-34.1 3.25-37.5 26.7-37.5 26.7-28.25 23.3-28.25 23.3-34.1 10.5-34.1 10.5-21.1 17.55-21.1 17.55-24.65 20.95-24.65 20.95-14.15 17.55-14.15ZM38.95-25L38.95-3.4 42.2-3.4 42.2 0 31.7 0 31.7-3.4 34.85-3.4 34.85-21.6 31.7-21.6 31.7-25 38.95-25ZM36.9-34.2Q37.95-34.2 38.67-33.43 39.4-32.65 39.4-31.58 39.4-30.5 38.67-29.78 37.95-29.05 36.87-29.05 35.8-29.05 35.07-29.78 34.35-30.5 34.35-31.58 34.35-32.65 35.1-33.43 35.85-34.2 36.9-34.2ZM63.5-25.5L63.5-25.5Q67.4-25.5 67.4-21.65L67.4-21.65 67.4-3.4 70.6-3.4 70.6 0 60.95 0 60.95-3.4 63.35-3.4 63.35-22 53.4-15.75 53.4-3.4 55.85-3.4 55.85 0 46.2 0 46.2-3.4 49.35-3.4 49.35-21.65 46.2-21.65 46.2-25 53.4-25 53.4-19.8 61.7-25Q62.5-25.5 63.5-25.5ZM92.09-3.4L95.24-3.4 95.24 0 77.84 0Q75.29 0 74.39-1L74.39-1Q73.59-1.9 73.59-4.4L73.59-4.4 73.59-6.25Q73.59-8.05 74.04-8.7L74.04-8.7Q74.69-9.65 76.99-11.05L76.99-11.05 87.99-17.9 87.99-21.6 78.19-21.6 78.19-18.7 74.99-18.7 74.99-25 87.49-25Q90.04-25 91.07-23.9 92.09-22.8 92.09-20.7L92.09-20.7 92.09-3.4ZM87.99-3.4L87.99-13.9 77.59-7.4 77.59-3.4 87.99-3.4ZM106.99-37.5L106.99-3.4 110.24-3.4 110.24 0 99.74 0 99.74-3.4 102.89-3.4 102.89-34.1 99.74-34.1 99.74-37.5 106.99-37.5ZM129.49-25L135.99-25 135.99 6.65Q135.99 8.75 134.96 9.85 133.94 10.95 131.39 10.95L131.39 10.95 119.84 10.95 119.84 4.15 123.24 4.15 123.24 7.5 131.89 7.5 131.89-5.65 123.09-0.2Q121.94 0.5 120.79 0.5L120.79 0.5Q119.64 0.5 118.79-0.28 117.94-1.05 117.94-2.75L117.94-2.75 117.94-21.6 114.74-21.6 114.74-25 121.99-25 121.99-3.45 131.94-9.7 131.94-21.6 129.49-21.6 129.49-25ZM144.19-34.1L148.09-34.1 148.09-25 152.14-25 152.14-21.4 148.09-21.4 148.09-3.4 152.84-3.4 152.84 0 148.64 0Q146.39 0 145.29-1.18 144.19-2.35 144.19-5.2L144.19-5.2 144.19-21.4 140.49-21.4 140.49-25 144.19-25 144.19-34.1ZM164.08-25L164.08-3.4 167.33-3.4 167.33 0 156.83 0 156.83-3.4 159.98-3.4 159.98-21.6 156.83-21.6 156.83-25 164.08-25ZM162.03-34.2Q163.08-34.2 163.81-33.43 164.53-32.65 164.53-31.58 164.53-30.5 163.81-29.78 163.08-29.05 162.01-29.05 160.93-29.05 160.21-29.78 159.48-30.5 159.48-31.58 159.48-32.65 160.23-33.43 160.98-34.2 162.03-34.2ZM188.63-6.3L188.63 0 176.18 0Q172.58 0 172.03-2.7L172.03-2.7Q171.83-3.5 171.83-4.4L171.83-4.4 171.83-20.6Q171.83-22.7 173.01-23.88 174.18-25.05 176.58-25.05L176.58-25.05 188.63-25.05 188.63-18.7 185.23-18.7 185.23-21.6 175.83-21.6 175.83-3.4 185.23-3.4 185.23-6.3 188.63-6.3ZM208.53-7.5L208.53-4.4Q208.53 0 204.23 0L204.23 0 192.13 0 192.13-7.55 195.53-7.55 195.53-3.4 204.53-3.4 204.53-7.55 196.33-12.7Q195.08-13.5 194.18-14 193.28-14.5 192.68-15L192.68-15Q191.58-16 191.58-17.7L191.58-17.7 191.58-20.55Q191.58-22.65 192.28-23.45L192.28-23.45Q193.63-25 196.28-25L196.28-25 207.93-25 207.93-17.5 204.53-17.5 204.53-21.6 195.53-21.6 195.53-17.4 204.03-12.1Q205.08-11.45 205.9-10.98 206.73-10.5 207.28-10L207.28-10Q208.53-8.95 208.53-7.5L208.53-7.5Z" opacity="1" transform="matrix(1,0,0,1,0,0)" fill="#152232" class="wordmark-text-0" data-fill-palette-color="primary" id="text-0"></path></svg></g></svg></g></svg></g></svg></g><g><svg viewBox="0 0 185.1969569571852 128.9975090501705" height="128.9975090501705" width="185.1969569571852"><g><svg xmlns="http://www.w3.org/2000/svg" xmlns:xlink="http://www.w3.org/1999/xlink" version="1.1" x="0" y="0" viewBox="0 12.551829282962558 100.13200000000002 69.74617071703744" enable-background="new 0 0 100 100" xml:space="preserve" width="185.1969569571852" height="128.9975090501705" class="icon-icon-0" data-fill-palette-color="accent" id="icon-0"><path fill="#5ebc67" d="M99.965 53.574c0.009-0.017 0.017-0.035 0.025-0.053 0.012-0.025 0.024-0.05 0.034-0.076 0.008-0.021 0.015-0.041 0.023-0.062 0.008-0.023 0.017-0.047 0.024-0.071s0.013-0.049 0.019-0.073c0.005-0.021 0.01-0.042 0.015-0.064 0.005-0.028 0.009-0.056 0.013-0.084 0.002-0.019 0.005-0.038 0.007-0.057 0.003-0.031 0.004-0.062 0.005-0.093 0-0.013 0.002-0.026 0.002-0.04 0-0.004-0.001-0.008-0.001-0.012 0-0.03-0.002-0.06-0.005-0.09-0.001-0.019-0.002-0.038-0.004-0.057-0.003-0.023-0.007-0.047-0.011-0.07-0.004-0.024-0.007-0.049-0.012-0.073-0.003-0.014-0.008-0.029-0.011-0.043-0.008-0.032-0.015-0.064-0.025-0.095-0.002-0.007-0.005-0.013-0.007-0.02-0.013-0.038-0.026-0.075-0.041-0.111-0.006-0.014-0.013-0.027-0.02-0.041-0.013-0.028-0.026-0.057-0.041-0.084-0.021-0.038-0.043-0.075-0.068-0.111-0.001-0.002-0.003-0.004-0.004-0.007-0.026-0.038-0.053-0.075-0.083-0.11l-0.001-0.001c-0.023-0.028-0.048-0.054-0.073-0.08-0.008-0.008-0.015-0.017-0.023-0.024-0.019-0.019-0.04-0.036-0.06-0.054-0.016-0.014-0.032-0.029-0.048-0.043-0.016-0.013-0.033-0.024-0.049-0.037-0.023-0.017-0.046-0.035-0.07-0.05-0.003-0.002-0.006-0.005-0.01-0.007-0.012-0.008-0.024-0.014-0.037-0.021-0.026-0.016-0.052-0.031-0.079-0.045-0.017-0.009-0.035-0.017-0.053-0.025-0.025-0.012-0.051-0.024-0.077-0.034-0.02-0.008-0.041-0.015-0.061-0.023-0.024-0.008-0.047-0.017-0.072-0.024-0.024-0.007-0.047-0.013-0.071-0.018-0.022-0.005-0.044-0.011-0.066-0.015-0.027-0.005-0.054-0.009-0.081-0.012-0.02-0.003-0.039-0.006-0.059-0.007-0.03-0.003-0.06-0.004-0.09-0.005-0.014 0-0.028-0.002-0.043-0.002H81.584l-3.441-8.907c-0.223-0.576-0.787-0.951-1.403-0.929-0.617 0.02-1.155 0.428-1.339 1.018l-2.762 8.817h-4.69L63.59 40.454c-0.188-0.475-0.612-0.816-1.116-0.898-0.504-0.083-1.014 0.106-1.344 0.496l-3.984 4.711-9.05-16.9c-0.234-0.436-0.674-0.724-1.167-0.763-0.494-0.04-0.973 0.176-1.272 0.571l-9.232 12.177-6.418-11.985c-0.234-0.436-0.674-0.724-1.167-0.763-0.494-0.04-0.973 0.176-1.272 0.571l-1.253 1.653-3.368-15.625c-0.139-0.643-0.691-1.112-1.348-1.145-0.658-0.036-1.253 0.379-1.455 1.005l-5.689 17.63-3.044-4.976c-0.295-0.482-0.841-0.749-1.402-0.686-0.561 0.063-1.035 0.446-1.214 0.981l-8.72 25.93c-0.001 0.004-0.002 0.007-0.003 0.011-0.003 0.008-0.006 0.016-0.008 0.024-0.006 0.019-0.01 0.038-0.015 0.057-0.001 0.004-0.002 0.007-0.003 0.011-0.004 0.017-0.01 0.035-0.013 0.052-0.003 0.016-0.006 0.031-0.009 0.047-0.002 0.009-0.003 0.018-0.004 0.028-0.004 0.024-0.008 0.048-0.011 0.072 0 0.003-0.001 0.007-0.001 0.01-0.001 0.014-0.001 0.029-0.002 0.043C0.003 52.823 0 52.853 0 52.883c0 0.004 0 0.008 0 0.012 0 0.002 0 0.004 0 0.007 0 0.012 0.001 0.023 0.002 0.035 0.001 0.029 0.001 0.058 0.003 0.086 0 0.005 0.001 0.01 0.002 0.016 0.002 0.018 0.005 0.036 0.007 0.053 0.003 0.023 0.005 0.045 0.009 0.068 0.001 0.006 0.003 0.013 0.004 0.019 0.004 0.022 0.01 0.043 0.015 0.064 0.004 0.017 0.007 0.034 0.012 0.051 0.002 0.008 0.005 0.016 0.007 0.023 0.007 0.023 0.015 0.045 0.023 0.067 0.005 0.013 0.009 0.027 0.014 0.04 0.003 0.009 0.007 0.018 0.011 0.027 0.009 0.022 0.019 0.042 0.029 0.064l0 0c0.006 0.013 0.011 0.025 0.017 0.038 0.005 0.009 0.01 0.018 0.014 0.028 0.01 0.019 0.021 0.037 0.032 0.056 0.008 0.014 0.016 0.028 0.024 0.041 0.005 0.008 0.011 0.017 0.017 0.025 0.01 0.016 0.022 0.031 0.033 0.046 0.012 0.016 0.023 0.033 0.035 0.048 0.005 0.007 0.011 0.013 0.016 0.02 0.01 0.013 0.021 0.024 0.032 0.037 0.016 0.018 0.032 0.037 0.049 0.055 0.003 0.004 0.006 0.007 0.01 0.011 0.002 0.002 0.003 0.003 0.005 0.005 0.01 0.01 0.02 0.019 0.03 0.028 0.02 0.019 0.04 0.038 0.061 0.056 0.005 0.005 0.01 0.01 0.016 0.014 0.01 0.008 0.02 0.015 0.03 0.023 0.022 0.017 0.043 0.034 0.066 0.05 0.019 0.013 0.038 0.025 0.057 0.037 0.02 0.012 0.04 0.025 0.06 0.036 0.007 0.004 0.013 0.008 0.02 0.012 0.017 0.009 0.036 0.017 0.053 0.026 0.017 0.008 0.034 0.017 0.052 0.025 0.008 0.004 0.016 0.008 0.024 0.011 0.02 0.008 0.041 0.015 0.062 0.023 0.001 0 0.002 0.001 0.002 0.001 0.012 0.004 0.023 0.01 0.035 0.014 0.004 0.001 0.008 0.002 0.011 0.003 0.008 0.003 0.015 0.006 0.023 0.008 0.017 0.005 0.035 0.009 0.053 0.014 0.005 0.001 0.009 0.002 0.014 0.004 0.018 0.005 0.036 0.01 0.054 0.014 0.021 0.005 0.043 0.008 0.064 0.011 0.002 0 0.005 0.001 0.007 0.001 0.025 0.004 0.05 0.009 0.075 0.012 0.003 0 0.006 0.001 0.009 0.001 0.014 0.001 0.028 0.001 0.042 0.002 0.031 0.002 0.061 0.005 0.092 0.005 0.004 0 0.007 0 0.011 0 0.002 0 0.005 0 0.007 0h27.284l1.921 8.913c0.121 0.561 0.56 0.998 1.122 1.116 0.561 0.118 1.139-0.105 1.476-0.57l2.844-3.927 2.437 10.121c0.146 0.608 0.665 1.054 1.288 1.107 0.622 0.053 1.21-0.297 1.458-0.871l3.704-8.564 5.59 19.563c0.155 0.542 0.609 0.945 1.165 1.035 0.078 0.012 0.155 0.019 0.232 0.019 0.475 0 0.927-0.234 1.2-0.634l7.576-11.107 3.222 6.672c0.228 0.473 0.694 0.786 1.219 0.819 0.03 0.002 0.06 0.003 0.09 0.003 0.491 0 0.952-0.249 1.22-0.665l8.948-13.852 6.612 13.695c0.228 0.473 0.694 0.786 1.219 0.819 0.03 0.002 0.06 0.003 0.09 0.003 0.491 0 0.952-0.249 1.22-0.665L99.898 53.69c0.008-0.012 0.013-0.024 0.021-0.036C99.935 53.628 99.95 53.602 99.965 53.574zM76.931 47.468l0.22 0.57c-0.102-0.038-0.212-0.06-0.327-0.06-0.018 0-0.036 0.002-0.054 0.003L76.931 47.468zM75.777 51.15c0.374-0.124 0.645-0.476 0.645-0.891 0-0.212-0.071-0.406-0.189-0.563l0.012-0.04c0.16 0.125 0.36 0.201 0.579 0.201 0.363 0 0.677-0.206 0.833-0.508l0.038 0.098c-0.28 0.163-0.469 0.465-0.469 0.812 0 0.519 0.42 0.939 0.939 0.939 0.068 0 0.134-0.008 0.198-0.021l0.105 0.272H77.75c-0.073-0.446-0.459-0.787-0.925-0.787-0.467 0-0.853 0.341-0.925 0.787h-0.215L75.777 51.15zM64.823 51.448H49.859l-0.019-0.049h5.496 0.056 9.411L64.823 51.448zM39.056 44.762l-0.077-0.144h0.198L39.056 44.762zM64.431 50.46h-9.039-0.056-5.868l-0.159-0.402h6.028 0.056 8.88L64.431 50.46zM61.073 44.619h1.042l0.16 0.402h-1.542L61.073 44.619zM59.939 45.96h2.708l0.16 0.402h-3.208L59.939 45.96zM58.805 47.301h4.374l0.159 0.402h-4.874L58.805 47.301zM56.722 48.779c0.272 0.029 0.543-0.021 0.783-0.136h6.206l0.189 0.476h-8.507-0.056-6.4l-0.189-0.476h6.589 0.056 0.853C56.393 48.714 56.554 48.761 56.722 48.779zM55.424 47.704h-0.032-0.056-6.961l-0.16-0.402h6.993L55.424 47.704zM54.706 46.362h-6.863l-0.16-0.402h6.807L54.706 46.362zM53.988 45.021h-6.643-0.033l-0.159-0.402h0.137 0.056 6.428L53.988 45.021zM53.269 43.68h-5.925-0.056H46.78l-0.16-0.402h0.668 0.056 5.71L53.269 43.68zM52.551 42.339h-5.207-0.056-1.04l-0.159-0.402h1.2 0.056 4.992L52.551 42.339zM51.833 40.997h-4.489-0.056-1.572l-0.159-0.402h1.732 0.056 4.273L51.833 40.997zM46.604 31.232l0.202 0.376h-0.487L46.604 31.232zM45.606 32.547h1.682 0.02l0.215 0.402h-0.179-0.056-1.987L45.606 32.547zM44.589 33.889h2.699 0.056 0.682l0.215 0.402h-0.897-0.056-3.004L44.589 33.889zM43.572 35.23h3.716 0.056 1.4l0.215 0.402h-1.616-0.056-4.021L43.572 35.23zM42.555 36.571h4.733 0.056 2.118l0.215 0.402h-2.334-0.056H42.25L42.555 36.571zM41.539 37.912h5.75 0.056 2.837l0.215 0.402h-3.052-0.056-6.055L41.539 37.912zM40.522 39.254h6.767 0.056H50.9l0.215 0.402h-3.77-0.056-2.562c-0.108-0.047-0.223-0.081-0.342-0.101-0.279-0.046-0.56-0.008-0.812 0.101h-3.356L40.522 39.254zM39.505 40.595h3.076l-0.34 0.402h-2.999H39.2L39.505 40.595zM38.488 41.936h0.753 2.205l-0.34 0.402h-1.865-1.058L38.488 41.936zM39.241 43.278h1.071l-0.34 0.402h-0.731-0.764l-0.215-0.402H39.241zM28.514 31.232l8.99 16.788c0.227 0.424 0.65 0.709 1.128 0.759 0.479 0.05 0.951-0.139 1.262-0.507l3.799-4.492 3.04 7.669H5.008L8.929 47.6l3.307 2.637c0.306 0.244 0.698 0.354 1.086 0.306 0.388-0.049 0.741-0.252 0.977-0.564L28.514 31.232zM21.071 20.148c0.095-0.075 0.174-0.167 0.235-0.272l0.019 0.087c-0.117 0.075-0.215 0.176-0.288 0.293L21.071 20.148zM10.411 30.816c0.092-0.089 0.166-0.195 0.216-0.315l0.079 0.129c-0.12 0.056-0.226 0.136-0.312 0.235L10.411 30.816zM4.98 46.969c0.216-0.172 0.354-0.437 0.354-0.734 0-0.08-0.011-0.157-0.03-0.231l0.081-0.24c0.109 0.044 0.227 0.069 0.352 0.069 0.519 0 0.939-0.42 0.939-0.939 0-0.433-0.294-0.797-0.693-0.905l0.159-0.472c0 0.012-0.002 0.024-0.002 0.037 0 0.519 0.42 0.939 0.939 0.939s0.939-0.42 0.939-0.939c0-0.518-0.42-0.939-0.939-0.939-0.318 0-0.598 0.158-0.768 0.4l0.027-0.081c0.207-0.172 0.339-0.432 0.339-0.722 0-0.073-0.009-0.143-0.025-0.212l0.086-0.256c0.106 0.041 0.221 0.065 0.341 0.065 0.519 0 0.939-0.42 0.939-0.939 0-0.43-0.289-0.791-0.683-0.903l0.146-0.436c0.002 0.517 0.421 0.936 0.939 0.936s0.939-0.42 0.939-0.939c0-0.518-0.42-0.939-0.939-0.939-0.305 0-0.576 0.146-0.747 0.372l0.023-0.068c0.197-0.172 0.322-0.424 0.322-0.707 0-0.066-0.007-0.13-0.02-0.192l0.091-0.271c0.103 0.039 0.214 0.061 0.331 0.061 0.518 0 0.939-0.42 0.939-0.939 0-0.426-0.284-0.785-0.672-0.9l0.137-0.408c0.017 0.503 0.43 0.906 0.937 0.906 0.519 0 0.939-0.42 0.939-0.939 0-0.518-0.42-0.939-0.939-0.939-0.293 0-0.554 0.134-0.726 0.344l0.018-0.055c0.187-0.172 0.305-0.417 0.305-0.691 0-0.058-0.006-0.114-0.016-0.169l0.098-0.291c0.1 0.036 0.208 0.057 0.321 0.057 0.519 0 0.939-0.42 0.939-0.939 0-0.422-0.278-0.779-0.661-0.897l0.128-0.381c0.032 0.489 0.438 0.876 0.936 0.876 0.218 0 0.418-0.075 0.577-0.2l0.019 0.032c-0.121 0.158-0.194 0.355-0.194 0.57 0 0.519 0.42 0.939 0.939 0.939 0.058 0 0.114-0.006 0.169-0.016l0.235 0.385c0 0.011-0.002 0.022-0.002 0.034 0 0.377 0.222 0.701 0.542 0.85l0.238 0.389c0.167 0.273 0.414 0.477 0.699 0.591 0.165 0.27 0.461 0.45 0.801 0.45 0.519 0 0.939-0.42 0.939-0.939 0-0.013-0.001-0.025-0.002-0.037 0.079-0.114 0.142-0.241 0.185-0.377l0.004-0.014c0.069 0.016 0.14 0.026 0.214 0.026 0.519 0 0.939-0.42 0.939-0.939 0-0.391-0.239-0.726-0.579-0.867l0.075-0.232c0.107 0.401 0.471 0.697 0.906 0.697 0.518 0 0.939-0.42 0.939-0.939 0-0.518-0.42-0.939-0.939-0.939-0.225 0-0.432 0.079-0.593 0.211l0.339-1.052c0.081 0.023 0.166 0.036 0.254 0.036 0.518 0 0.939-0.42 0.939-0.939 0-0.405-0.257-0.749-0.617-0.881l0.096-0.296c0.078 0.44 0.461 0.775 0.924 0.775 0.518 0 0.939-0.42 0.939-0.939 0-0.518-0.42-0.939-0.939-0.939-0.254 0-0.485 0.101-0.654 0.266l0.015-0.047c0.146-0.166 0.236-0.383 0.236-0.621 0-0.032-0.002-0.064-0.005-0.095l0.114-0.354c0.092 0.03 0.191 0.047 0.293 0.047 0.518 0 0.939-0.42 0.939-0.939 0-0.42-0.275-0.775-0.655-0.895l0.122-0.379c0.035 0.487 0.44 0.871 0.935 0.871 0.519 0 0.939-0.42 0.939-0.939 0-0.518-0.42-0.939-0.939-0.939-0.289 0-0.547 0.131-0.719 0.335l0.388-1.201c0.103 0.039 0.214 0.061 0.331 0.061 0.519 0 0.939-0.42 0.939-0.939 0-0.434-0.295-0.798-0.695-0.906l0.161-0.5c-0.001 0.021-0.003 0.042-0.003 0.064 0 0.472 0.348 0.861 0.801 0.928l0.176 0.818c-0.013-0.001-0.025-0.002-0.038-0.002-0.519 0-0.939 0.42-0.939 0.939s0.42 0.939 0.939 0.939c0.151 0 0.294-0.037 0.421-0.1l0.039 0.182c-0.037 0.1-0.058 0.208-0.058 0.321 0 0.256 0.102 0.487 0.268 0.657l0.008 0.037c-0.171-0.179-0.412-0.291-0.679-0.291-0.519 0-0.939 0.42-0.939 0.939s0.42 0.939 0.939 0.939c0.41 0 0.757-0.263 0.885-0.628l0.041 0.19c-0.31 0.153-0.524 0.472-0.524 0.841 0 0.508 0.403 0.92 0.907 0.937l0.176 0.819c-0.047-0.007-0.095-0.012-0.145-0.012-0.519 0-0.939 0.42-0.939 0.939s0.42 0.939 0.939 0.939c0.19 0 0.366-0.057 0.514-0.153l0.018 0.082c-0.081 0.139-0.129 0.3-0.129 0.473 0 0.316 0.157 0.595 0.396 0.765L24 32.376l0 0c-0.159-0.293-0.469-0.493-0.826-0.493-0.519 0-0.939 0.42-0.939 0.939 0 0.448 0.313 0.821 0.732 0.915l-0.209 0.276c-0.072-0.447-0.458-0.789-0.926-0.789-0.519 0-0.939 0.42-0.939 0.939s0.42 0.939 0.939 0.939c0.036 0 0.07-0.002 0.105-0.006l-0.576 0.759c0.044-0.108 0.068-0.227 0.068-0.351 0-0.518-0.42-0.939-0.939-0.939s-0.939 0.42-0.939 0.939 0.42 0.939 0.939 0.939c0.216 0 0.415-0.074 0.574-0.197l-0.776 1.024c-0.421 0.093-0.736 0.468-0.736 0.916 0 0.017 0.002 0.034 0.003 0.051L19.281 38.6c-0.043-0.006-0.086-0.01-0.131-0.01-0.519 0-0.939 0.42-0.939 0.939 0 0.134 0.029 0.262 0.08 0.377l-0.086 0.113c-0.12-0.056-0.254-0.088-0.396-0.088-0.519 0-0.939 0.42-0.939 0.939 0 0.234 0.086 0.447 0.227 0.611l-0.016 0.021c-0.165-0.143-0.379-0.229-0.614-0.229-0.519 0-0.939 0.42-0.939 0.939 0 0.327 0.167 0.615 0.421 0.783l-0.036 0.048c-0.167-0.257-0.457-0.428-0.787-0.428-0.519 0-0.939 0.42-0.939 0.939 0 0.421 0.277 0.777 0.659 0.896l-0.155 0.204c-0.106-0.402-0.471-0.698-0.907-0.698-0.519 0-0.939 0.42-0.939 0.939s0.42 0.939 0.939 0.939c0.004 0 0.008-0.001 0.013-0.001l-0.43 0.567c0.01-0.054 0.015-0.109 0.015-0.165 0-0.518-0.42-0.939-0.939-0.939-0.426 0-0.784 0.283-0.9 0.671l-0.208-0.165c0.405-0.104 0.705-0.471 0.705-0.908 0-0.518-0.42-0.939-0.939-0.939-0.51 0-0.924 0.407-0.938 0.913l-0.429-0.342c-0.017-0.014-0.035-0.026-0.053-0.038 0.026 0.002 0.052 0.004 0.078 0.004 0.519 0 0.939-0.42 0.939-0.939 0-0.518-0.42-0.939-0.939-0.939s-0.939 0.42-0.939 0.939c0 0.272 0.116 0.515 0.3 0.687-0.012-0.002-0.024-0.004-0.036-0.006-0.17-0.172-0.406-0.278-0.667-0.278-0.519 0-0.939 0.42-0.939 0.939 0 0.018 0.002 0.036 0.003 0.054L7.123 45.3c-0.016-0.001-0.031-0.002-0.047-0.002-0.519 0-0.939 0.421-0.939 0.939 0 0.01 0.001 0.02 0.002 0.03L5.76 46.639c-0.008 0-0.015-0.001-0.023-0.001-0.333 0-0.625 0.174-0.792 0.436L4.98 46.969zM4.798 47.583l-0.036 0.036 0.04-0.119c-0.002 0.025-0.004 0.051-0.004 0.077C4.798 47.579 4.798 47.581 4.798 47.583zM32.812 59.47l-0.053-0.245c0.122-0.026 0.236-0.076 0.336-0.145L32.812 59.47zM36.082 55.201c-0.155-0.306-0.471-0.515-0.837-0.515-0.519 0-0.939 0.42-0.939 0.939 0 0.416 0.271 0.768 0.646 0.892l-0.144 0.199c-0.11-0.396-0.472-0.688-0.904-0.688-0.519 0-0.939 0.42-0.939 0.939s0.42 0.939 0.939 0.939c0.015 0 0.029-0.002 0.044-0.002l-0.485 0.67c0.025-0.084 0.039-0.173 0.039-0.265 0-0.518-0.42-0.939-0.939-0.939-0.068 0-0.134 0.008-0.198 0.021l-0.197-0.914c0.12 0.056 0.254 0.088 0.395 0.088 0.519 0 0.939-0.42 0.939-0.939 0-0.518-0.42-0.939-0.939-0.939-0.284 0-0.539 0.127-0.711 0.327l-0.006-0.029c0.176-0.157 0.292-0.379 0.311-0.629h0.812c0.037 0.485 0.441 0.868 0.935 0.868s0.899-0.382 0.935-0.868h0.811c0.027 0.352 0.248 0.65 0.556 0.787C36.164 55.159 36.122 55.179 36.082 55.201zM40.343 65.097l-0.14-0.579c0.107 0.052 0.226 0.083 0.351 0.091L40.343 65.097zM52.52 77.466l-0.251-0.88c0.125 0.061 0.265 0.097 0.413 0.097 0.164 0 0.318-0.042 0.452-0.116L52.52 77.466zM58.715 68.383c-0.075 0.077-0.137 0.167-0.182 0.267l-0.541 0.793c-0.493 0.028-0.885 0.436-0.885 0.936 0 0.102 0.017 0.2 0.047 0.292l-0.117 0.172c-0.103-0.039-0.215-0.062-0.332-0.062-0.519 0-0.939 0.42-0.939 0.939 0 0.243 0.093 0.463 0.244 0.629l-0.013 0.02c-0.167-0.153-0.389-0.247-0.633-0.247-0.519 0-0.939 0.42-0.939 0.939 0 0.37 0.214 0.689 0.525 0.842l-0.074 0.109c-0.148-0.323-0.474-0.549-0.853-0.549-0.519 0-0.939 0.42-0.939 0.939 0 0.501 0.393 0.909 0.887 0.936l-0.359 0.527c0.005-0.04 0.009-0.08 0.009-0.122 0-0.518-0.42-0.939-0.939-0.939-0.336 0-0.63 0.177-0.796 0.442l-0.019-0.067c0.249-0.169 0.412-0.454 0.412-0.777 0-0.506-0.401-0.918-0.902-0.937l-0.237-0.828c0.065 0.014 0.131 0.022 0.2 0.022 0.519 0 0.939-0.42 0.939-0.939 0-0.518-0.42-0.939-0.939-0.939-0.255 0-0.485 0.102-0.654 0.266l-0.007-0.023c0.16-0.168 0.258-0.395 0.258-0.646 0-0.437-0.299-0.803-0.702-0.908l-0.239-0.836c0.001 0 0.002 0 0.002 0 0.519 0 0.939-0.42 0.939-0.939 0-0.518-0.42-0.939-0.939-0.939-0.183 0-0.353 0.053-0.498 0.144l-0.025-0.087c0.076-0.136 0.12-0.292 0.12-0.459 0-0.354-0.196-0.663-0.486-0.823l-0.268-0.939c0.43-0.086 0.755-0.465 0.755-0.921 0-0.518-0.42-0.939-0.939-0.939-0.116 0-0.227 0.022-0.33 0.061l-0.087-0.304c0.009-0.052 0.014-0.104 0.014-0.159 0-0.239-0.09-0.457-0.238-0.623l-0.013-0.044c0.169 0.164 0.399 0.265 0.653 0.265 0.519 0 0.939-0.42 0.939-0.939 0-0.518-0.42-0.939-0.939-0.939-0.44 0-0.809 0.303-0.91 0.712l-0.071-0.247c0.34-0.141 0.578-0.476 0.578-0.867 0-0.518-0.42-0.939-0.939-0.939-0.052 0-0.102 0.005-0.152 0.013l-0.261-0.915c0.125 0.061 0.265 0.097 0.413 0.097 0.518 0 0.939-0.42 0.939-0.939 0-0.518-0.42-0.939-0.939-0.939-0.373 0-0.693 0.217-0.845 0.532-0.023-0.034-0.047-0.066-0.072-0.097 0.305-0.155 0.515-0.471 0.515-0.837 0-0.518-0.42-0.939-0.939-0.939s-0.939 0.42-0.939 0.939c0 0.108 0.019 0.21 0.052 0.307-0.131 0.016-0.259 0.049-0.379 0.099-0.025-0.002-0.05-0.004-0.076-0.004-0.519 0-0.939 0.42-0.939 0.939 0 0.098 0.015 0.193 0.043 0.282l-0.083 0.193c-0.112-0.047-0.234-0.073-0.362-0.073-0.519 0-0.939 0.42-0.939 0.939 0 0.382 0.228 0.71 0.556 0.857l-0.074 0.171c-0.129-0.364-0.476-0.626-0.884-0.626-0.519 0-0.939 0.42-0.939 0.939s0.42 0.939 0.939 0.939c0.134 0 0.262-0.029 0.377-0.079l-0.383 0.884c-0.516 0.003-0.933 0.422-0.933 0.939 0 0.247 0.096 0.47 0.251 0.638l-0.009 0.022c-0.168-0.159-0.395-0.257-0.644-0.257-0.305 0-0.575 0.146-0.747 0.371l-0.01-0.04c0.215-0.172 0.354-0.436 0.354-0.734 0-0.455-0.323-0.834-0.752-0.92l-0.198-0.824c0.004 0 0.008 0.001 0.012 0.001 0.519 0 0.939-0.42 0.939-0.939 0-0.518-0.42-0.939-0.939-0.939-0.158 0-0.307 0.04-0.438 0.109l-0.036-0.151c0.046-0.111 0.072-0.232 0.072-0.36 0-0.286-0.128-0.542-0.33-0.714l-0.015-0.06c0.171 0.226 0.442 0.372 0.747 0.372 0.519 0 0.939-0.42 0.939-0.939 0-0.518-0.42-0.939-0.939-0.939-0.462 0-0.845 0.334-0.924 0.774l-0.073-0.304c0.348-0.138 0.594-0.476 0.594-0.873 0-0.518-0.42-0.939-0.939-0.939-0.315 0-0.593 0.156-0.763 0.394-0.019-0.005-0.039-0.01-0.058-0.014 0.234-0.156 0.392-0.414 0.415-0.71h0.813c0.037 0.485 0.441 0.868 0.935 0.868s0.899-0.382 0.935-0.868h0.812c0.037 0.485 0.441 0.868 0.935 0.868s0.899-0.382 0.935-0.868h0.812c0.037 0.485 0.441 0.868 0.935 0.868s0.899-0.382 0.935-0.868h0.812c0.037 0.485 0.441 0.868 0.935 0.868 0.312 0 0.588-0.153 0.759-0.388l0.017 0.042c-0.226 0.171-0.373 0.442-0.373 0.748 0 0.519 0.42 0.939 0.939 0.939 0.034 0 0.068-0.002 0.101-0.006l0.372 0.939c-0.139-0.082-0.301-0.129-0.473-0.129-0.519 0-0.939 0.42-0.939 0.939s0.42 0.939 0.939 0.939c0.426 0 0.785-0.284 0.9-0.673l0.082 0.208c-0.34 0.141-0.58 0.476-0.58 0.868 0 0.519 0.42 0.939 0.939 0.939 0.117 0 0.229-0.023 0.333-0.062l0.097 0.244c-0.017 0.071-0.027 0.144-0.027 0.22 0 0.443 0.308 0.814 0.721 0.912 0.147 0.106 0.313 0.186 0.493 0.232 0.047 0.012 0.095 0.021 0.143 0.028-0.01 0.055-0.016 0.111-0.016 0.169 0 0.519 0.42 0.939 0.939 0.939 0.518 0 0.939-0.42 0.939-0.939 0-0.313-0.154-0.59-0.39-0.761l0.034-0.028c0.171 0.234 0.446 0.387 0.758 0.387 0.519 0 0.939-0.42 0.939-0.939 0-0.251-0.099-0.478-0.259-0.646l0.017-0.014c0.168 0.159 0.395 0.258 0.645 0.258 0.185 0 0.357-0.054 0.502-0.146l0.033 0.069c-0.084 0.14-0.133 0.304-0.133 0.48 0 0.476 0.354 0.868 0.813 0.93l0.415 0.86c-0.091-0.03-0.188-0.046-0.29-0.046-0.519 0-0.939 0.42-0.939 0.939s0.42 0.939 0.939 0.939c0.403 0 0.746-0.254 0.879-0.611l0.076 0.158c-0.326 0.147-0.553 0.475-0.553 0.855 0 0.519 0.42 0.939 0.939 0.939 0.155 0 0.301-0.038 0.43-0.105l0.057 0.119c-0.054 0.118-0.085 0.25-0.085 0.388 0 0.44 0.303 0.808 0.712 0.91l0.132 0.272L58.715 68.383zM65.464 73.635L57.307 56.74c-0.195-0.403-0.564-0.694-1.001-0.788-0.437-0.094-0.894 0.017-1.238 0.304l-2.482 2.069-1.574-3.97H77.92L65.464 73.635zM83.794 73.262h-0.422l-0.194-0.402h0.876L83.794 73.262zM84.661 71.921h-1.936l-0.194-0.402h2.39L84.661 71.921zM85.527 70.579h-3.45l-0.194-0.402h3.904L85.527 70.579zM86.394 69.238H81.43l-0.194-0.402h5.418L86.394 69.238zM87.26 67.897h-6.478l-0.194-0.402h6.932L87.26 67.897zM88.127 66.556h-0.544-0.056-7.392l-0.194-0.402h7.586 0.056 0.804L88.127 66.556zM88.993 65.214h-1.411-0.056-7.992-0.048l-0.194-0.402h0.186 0.056 7.992 0.056 1.671L88.993 65.214zM89.86 63.873h-2.277-0.056-7.992-0.056H78.84l-0.194-0.402h0.834 0.056 7.992 0.056 2.537L89.86 63.873zM90.726 62.532h-3.144-0.056-7.992-0.056-1.287l-0.194-0.402h1.481 4.052 3.996 0.056 3.404L90.726 62.532zM91.593 61.19h-4.01-0.056-3.996-4.052-1.935l-0.194-0.402h2.129 3.735 4.312 0.056 4.27L91.593 61.19zM92.459 59.849h-4.877-0.056-4.312-3.735-1.65l0.26-0.402h1.39 0.056 7.992 0.056 5.137L92.459 59.849zM93.326 58.508h-5.743-0.056-7.992-0.056-0.783l0.26-0.402h0.523 0.056 7.992 0.056 6.003L93.326 58.508zM94.192 57.167h-6.61-0.056-7.964l0.26-0.402h7.704 0.056 6.87L94.192 57.167zM95.059 55.825h-7.476-0.056-7.098l0.26-0.402h6.838 0.056 7.736L95.059 55.825zM95.63 54.484h-8.048-0.056-6.231l0.084-0.13h14.63l-0.084 0.13H95.63z" data-fill-palette-color="accent"></path><circle fill="#5ebc67" cx="55.364" cy="70.378" r="0.94" data-fill-palette-color="accent"></circle><circle fill="#5ebc67" cx="52.682" cy="73.061" r="0.94" data-fill-palette-color="accent"></circle><circle fill="#5ebc67" cx="58.047" cy="67.696" r="0.94" data-fill-palette-color="accent"></circle><circle fill="#5ebc67" cx="56.705" cy="69.037" r="0.94" data-fill-palette-color="accent"></circle><circle fill="#5ebc67" cx="54.023" cy="71.72" r="0.94" data-fill-palette-color="accent"></circle><circle fill="#5ebc67" cx="49.999" cy="65.013" r="0.94" data-fill-palette-color="accent"></circle><circle fill="#5ebc67" cx="49.999" cy="62.331" r="0.94" data-fill-palette-color="accent"></circle><circle fill="#5ebc67" cx="51.34" cy="69.037" r="0.94" data-fill-palette-color="accent"></circle><circle fill="#5ebc67" cx="51.34" cy="66.355" r="0.94" data-fill-palette-color="accent"></circle><circle fill="#5ebc67" cx="52.681" cy="70.378" r="0.94" data-fill-palette-color="accent"></circle><circle fill="#5ebc67" cx="40.61" cy="60.989" r="0.94" data-fill-palette-color="accent"></circle><circle fill="#5ebc67" cx="40.61" cy="55.624" r="0.94" data-fill-palette-color="accent"></circle><circle fill="#5ebc67" cx="41.951" cy="56.966" r="0.94" data-fill-palette-color="accent"></circle><circle fill="#5ebc67" cx="43.293" cy="55.624" r="0.94" data-fill-palette-color="accent"></circle><circle fill="#5ebc67" cx="40.61" cy="58.307" r="0.94" data-fill-palette-color="accent"></circle><circle fill="#5ebc67" cx="54.023" cy="63.672" r="0.94" data-fill-palette-color="accent"></circle><circle fill="#5ebc67" cx="55.364" cy="65.013" r="0.94" data-fill-palette-color="accent"></circle><circle fill="#5ebc67" cx="54.023" cy="66.355" r="0.94" data-fill-palette-color="accent"></circle><circle fill="#5ebc67" cx="55.364" cy="62.331" r="0.94" data-fill-palette-color="accent"></circle><circle fill="#5ebc67" cx="52.681" cy="65.013" r="0.94" data-fill-palette-color="accent"></circle><circle fill="#5ebc67" cx="56.705" cy="66.355" r="0.94" data-fill-palette-color="accent"></circle><circle fill="#5ebc67" cx="55.364" cy="67.696" r="0.94" data-fill-palette-color="accent"></circle><circle fill="#5ebc67" cx="54.023" cy="69.037" r="0.94" data-fill-palette-color="accent"></circle><circle fill="#5ebc67" cx="52.681" cy="67.696" r="0.94" data-fill-palette-color="accent"></circle><circle fill="#5ebc67" cx="51.34" cy="63.672" r="0.94" data-fill-palette-color="accent"></circle><circle fill="#5ebc67" cx="20.491" cy="30.14" r="0.94" data-fill-palette-color="accent"></circle><circle fill="#5ebc67" cx="8.419" cy="42.212" r="0.94" data-fill-palette-color="accent"></circle><circle fill="#5ebc67" cx="9.761" cy="40.87" r="0.94" data-fill-palette-color="accent"></circle><circle fill="#5ebc67" cx="12.443" cy="35.505" r="0.94" data-fill-palette-color="accent"></circle><circle fill="#5ebc67" cx="13.784" cy="36.847" r="0.94" data-fill-palette-color="accent"></circle><circle fill="#5ebc67" cx="15.126" cy="38.188" r="0.94" data-fill-palette-color="accent"></circle><circle fill="#5ebc67" cx="11.102" cy="36.846" r="0.94" data-fill-palette-color="accent"></circle><circle fill="#5ebc67" cx="9.761" cy="38.188" r="0.94" data-fill-palette-color="accent"></circle><circle fill="#5ebc67" cx="11.102" cy="34.164" r="0.94" data-fill-palette-color="accent"></circle><circle fill="#5ebc67" cx="15.126" cy="40.87" r="0.94" data-fill-palette-color="accent"></circle><circle fill="#5ebc67" cx="16.467" cy="36.846" r="0.94" data-fill-palette-color="accent"></circle><circle fill="#5ebc67" cx="11.102" cy="42.212" r="0.94" data-fill-palette-color="accent"></circle><circle fill="#5ebc67" cx="11.102" cy="39.529" r="0.94" data-fill-palette-color="accent"></circle><circle fill="#5ebc67" cx="12.443" cy="38.188" r="0.94" data-fill-palette-color="accent"></circle><circle fill="#5ebc67" cx="12.443" cy="43.553" r="0.94" data-fill-palette-color="accent"></circle><circle fill="#5ebc67" cx="16.467" cy="39.529" r="0.94" data-fill-palette-color="accent"></circle><circle fill="#5ebc67" cx="12.443" cy="40.87" r="0.94" data-fill-palette-color="accent"></circle><circle fill="#5ebc67" cx="13.784" cy="39.529" r="0.94" data-fill-palette-color="accent"></circle><circle fill="#5ebc67" cx="13.785" cy="42.212" r="0.94" data-fill-palette-color="accent"></circle><circle fill="#5ebc67" cx="21.832" cy="31.481" r="0.94" data-fill-palette-color="accent"></circle><circle fill="#5ebc67" cx="21.832" cy="28.799" r="0.94" data-fill-palette-color="accent"></circle><circle fill="#5ebc67" cx="17.808" cy="35.505" r="0.94" data-fill-palette-color="accent"></circle><circle fill="#5ebc67" cx="20.491" cy="27.458" r="0.94" data-fill-palette-color="accent"></circle><circle fill="#5ebc67" cx="19.15" cy="31.481" r="0.94" data-fill-palette-color="accent"></circle><circle fill="#5ebc67" cx="19.15" cy="34.164" r="0.94" data-fill-palette-color="accent"></circle><circle fill="#5ebc67" cx="20.491" cy="32.823" r="0.94" data-fill-palette-color="accent"></circle><circle fill="#5ebc67" cx="17.808" cy="38.188" r="0.94" data-fill-palette-color="accent"></circle><circle fill="#5ebc67" cx="19.15" cy="36.847" r="0.94" data-fill-palette-color="accent"></circle></svg></g></svg></g></svg></g><defs></defs></svg><rect width="395.52" height="84.64683088425427" fill="none" stroke="none" visibility="hidden"></rect></g></svg></g></svg>